{"title":"SHARPE.RIFLES.(1 av 14)SWESUB.DivX -Lindoff.avi","uid":6073438,"size":1013546386,"categoryP":"video","categoryS":"movies","magnet":"?xt=urn:btih:ed5fe165fc7597fb0ba47f355fb99a26c780980a&amp;dn=SHARPE.RIFLES.%281+av+14%29SWESUB.DivX+-Lindoff.avi&amp;tr=udp%3A%2F%2Ftracker.openbittorrent.com%3A80&amp;tr=udp%3A%2F%2Fopen.demonii.com%3A1337&amp;tr=udp%3A%2F%2Ftracker.coppersurfer.tk%3A6969&amp;tr=udp%3A%2F%2Fexodus.desync.com%3A6969","seeders":0,"leechers":1,"uploader":"Lindoff41","files":1,"time":1293725811,"description":"Portugal 1809\n\nSnabbrÃƒÂ¶rliga, intensiv actionÃƒÂ¤ventyr filmat pÃƒÂ¥ plats i Krim, Portugal och England leder till skÃƒÂ¤rmen alla fara, romantik och ren spektakel av en av de blodigaste perioderna i engelska krigfÃƒÂ¶ring. Richard Sharpe stiger i graderna av Wellingtons armÃƒÂ© genom sitt modiga och vÃƒÂ¥gade bedrifter. Han och hans mÃƒÂ¤n fungerar bakom franska linjerna, riskerar sina liv fÃƒÂ¶r att undergrÃƒÂ¤va Napoleons styrkor.\n\n\n\n\n\nFormat                           : AVI\nFormat/Info                      : Audio Video Interleave\nFile size                        : 967 MiB\nDuration                         : 1h 40mn\nOverall bit rate                 : 1 341 Kbps\nWriting application              : Lavf52.31.0\n\nVideo\nID                               : 0\nFormat                           : MPEG-4 Visual\nFormat profile                   : Simple@L1\nFormat settings, BVOP            : No\nFormat settings, QPel            : No\nFormat settings, GMC             : No warppoints\nFormat settings, Matrix          : Default (H.263)\nCodec ID                         : FMP4\nDuration                         : 1h 40mn\nBit rate                         : 1 200 Kbps\nWidth                            : 720 pixels\nHeight                           : 576 pixels\nDisplay aspect ratio             : 4:3\nFrame rate                       : 25.000 fps\nStandard                         : PAL\nColor space                      : YUV\nChroma subsampling               : 4:2:0\nBit depth                        : 8 bits\nScan type                        : Progressive\nBits/(Pixel*Frame)               : 0.116\nStream size                      : 865 MiB (89%)\nWriting library                  : Lavc52.20.0\n\nAudio\nID                               : 1\nFormat                           : MPEG Audio\nFormat version                   : Version 1\nFormat profile                   : Layer 3\nMode                             : Joint stereo\nCodec ID                         : 55\nCodec ID/Hint                    : MP3\nDuration                         : 1h 40mn\nBit rate mode                    : Constant\nBit rate                         : 128 Kbps\nChannel(s)                       : 2 channels\nSampling rate                    : 48.0 KHz\nStream size                      : 92.3 MiB (10%)\nAlignment                        : Aligned on interleaves\nInterleave, duration             : 24 ms (0.60 video frame)\nWriting library                  : LAME3.97\n\n\t\t","torrent":{"xt":"urn:btih:ed5fe165fc7597fb0ba47f355fb99a26c780980a","amp;dn":"SHARPE.RIFLES.%281+av+14%29SWESUB.DivX+-Lindoff.avi","amp;tr":["udp%3A%2F%2Ftracker.openbittorrent.com%3A80","udp%3A%2F%2Fopen.demonii.com%3A1337","udp%3A%2F%2Ftracker.coppersurfer.tk%3A6969","udp%3A%2F%2Fexodus.desync.com%3A6969"],"infoHash":"ed5fe165fc7597fb0ba47f355fb99a26c780980a","infoHashBuffer":{"type":"Buffer","data":[237,95,225,101,252,117,151,251,11,164,127,53,95,185,154,38,199,128,152,10]},"announce":[],"urlList":[]}}